<svg xmlns="http://www.w3.org/2000/svg" width="1200" height="675" viewBox="0 0 1200 675" role="img" aria-labelledby="t d">
<title id="t">Cara Mengurangi Lag Roblox di Android</title>
<desc id="d">Ilustrasi abstrak bertema gaming dan performa Android untuk panduan Roblox.</desc>
<defs>
  <linearGradient id="bg" x1="0" y1="0" x2="1" y2="1">
    <stop offset="0" stop-color="#071326"/>
    <stop offset=".55" stop-color="#0d2548"/>
    <stop offset="1" stop-color="#06101e"/>
  </linearGradient>
  <linearGradient id="g" x1="0" y1="0" x2="1" y2="1">
    <stop offset="0" stop-color="#62ddff"/>
    <stop offset="1" stop-color="#4b7cff"/>
  </linearGradient>
  <filter id="blur"><feGaussianBlur stdDeviation="36"/></filter>
</defs>
<rect width="1200" height="675" fill="url(#bg)"/>
<circle cx="1010" cy="120" r="210" fill="#4b7cff" opacity=".18" filter="url(#blur)"/>
<circle cx="190" cy="590" r="220" fill="#62ddff" opacity=".13" filter="url(#blur)"/>
<g opacity=".14" stroke="#fff">
  <path d="M0 120H1200M0 240H1200M0 360H1200M0 480H1200M0 600H1200"/>
  <path d="M120 0V675M240 0V675M360 0V675M480 0V675M600 0V675M720 0V675M840 0V675M960 0V675M1080 0V675"/>
</g>
<g transform="translate(790 120)">
  <rect x="0" y="0" width="270" height="430" rx="38" fill="#091628" stroke="#a8c8e8" stroke-opacity=".25" stroke-width="3"/>
  <rect x="21" y="48" width="228" height="330" rx="24" fill="#102949"/>
  <rect x="48" y="84" width="62" height="62" rx="14" fill="url(#g)"/>
  <rect x="127" y="84" width="62" height="62" rx="14" fill="#ffd658"/>
  <rect x="87" y="164" width="62" height="62" rx="14" fill="#65e2a4"/>
  <path d="M50 300C86 270 110 306 139 274S195 248 221 213" fill="none" stroke="#65e2a4" stroke-width="12" stroke-linecap="round"/>
  <circle cx="50" cy="300" r="10" fill="#65e2a4"/><circle cx="221" cy="213" r="10" fill="#65e2a4"/>
  <rect x="92" y="397" width="86" height="8" rx="4" fill="#fff" opacity=".28"/>
</g>
<g transform="translate(82 106)">
  <rect x="0" y="0" width="126" height="34" rx="17" fill="#62ddff" fill-opacity=".12" stroke="#62ddff" stroke-opacity=".28"/>
  <text x="63" y="22" text-anchor="middle" fill="#dff8ff" font-family="Arial,Helvetica,sans-serif" font-size="14" font-weight="700" letter-spacing="2">ROBLOX</text>
  <text x="0" y="105" fill="#ffffff" font-family="Arial,Helvetica,sans-serif" font-size="66" font-weight="800">Kurangi Lag</text>
  <text x="0" y="176" fill="#ffffff" font-family="Arial,Helvetica,sans-serif" font-size="66" font-weight="800">di Android</text>
  <text x="0" y="233" fill="#a9bdd4" font-family="Arial,Helvetica,sans-serif" font-size="27">Grafik • Internet • Sistem • Suhu HP</text>
  <g transform="translate(0 290)">
    <rect width="520" height="92" rx="24" fill="#ffffff" fill-opacity=".055" stroke="#ffffff" stroke-opacity=".11"/>
    <text x="28" y="39" fill="#ffd658" font-family="Arial,Helvetica,sans-serif" font-size="20" font-weight="700">PANDUAN PERFORMA</text>
    <text x="28" y="68" fill="#c8d7e8" font-family="Arial,Helvetica,sans-serif" font-size="18">Bedakan network, graphics, dan system lag</text>
  </g>
</g>
</svg>